<?xml version="1.0" encoding="utf-8"?>
<!-- Generator: Adobe Illustrator 23.0.0, SVG Export Plug-In . SVG Version: 6.00 Build 0)  -->
<svg version="1.1" id="Layer_1" xmlns="http://www.w3.org/2000/svg" xmlns:xlink="http://www.w3.org/1999/xlink" x="0px" y="0px"
	 viewBox="0 0 114.09 36.55" style="enable-background:new 0 0 114.09 36.55;" xml:space="preserve">
<style type="text/css">
	.st0{fill:url(#SVGID_1_);}
	.st1{fill:url(#SVGID_2_);}
	.st2{fill:url(#SVGID_3_);}
	.st3{fill:url(#SVGID_4_);}
	.st4{fill:url(#SVGID_5_);}
	.st5{fill:url(#SVGID_6_);}
	.st6{fill:url(#SVGID_7_);}
	.st7{fill:url(#SVGID_8_);}
	.st8{fill:url(#SVGID_9_);}
	.st9{fill:url(#SVGID_10_);}
	.st10{fill:url(#SVGID_11_);}
	.st11{fill:url(#SVGID_12_);}
	.st12{fill:url(#SVGID_13_);}
	.st13{fill:url(#SVGID_14_);}
	.st14{fill:url(#SVGID_15_);}
	.st15{fill:url(#SVGID_16_);}
	.st16{fill:url(#SVGID_17_);}
	.st17{fill:url(#SVGID_18_);}
	.st18{fill:url(#SVGID_19_);}
	.st19{fill:url(#SVGID_20_);}
	.st20{fill:url(#SVGID_21_);}
	.st21{fill:url(#SVGID_22_);}
	.st22{fill:url(#SVGID_23_);}
	.st23{fill:url(#SVGID_24_);}
	.st24{fill:url(#SVGID_25_);}
	.st25{fill:url(#SVGID_26_);}
	.st26{fill:url(#SVGID_27_);}
	.st27{fill:url(#SVGID_28_);}
	.st28{fill:url(#SVGID_29_);}
	.st29{fill:url(#SVGID_30_);}
	.st30{fill:url(#SVGID_31_);}
	.st31{fill:url(#SVGID_32_);}
	.st32{fill:url(#SVGID_33_);}
	.st33{fill:url(#SVGID_34_);}
	.st34{fill:#818991;}
</style>
<g>
	<g>
		<linearGradient id="SVGID_1_" gradientUnits="userSpaceOnUse" x1="21.4741" y1="78.256" x2="20.3392" y2="-40.5236">
			<stop  offset="0.0238" style="stop-color:#00FFF4"/>
			<stop  offset="0.1563" style="stop-color:#00FBF0"/>
			<stop  offset="0.2802" style="stop-color:#00F0E6"/>
			<stop  offset="0.4007" style="stop-color:#00DDD3"/>
			<stop  offset="0.5191" style="stop-color:#00C2BA"/>
			<stop  offset="0.6361" style="stop-color:#00A099"/>
			<stop  offset="0.752" style="stop-color:#007671"/>
			<stop  offset="0.867" style="stop-color:#004441"/>
			<stop  offset="0.9786" style="stop-color:#000C0B"/>
			<stop  offset="1" style="stop-color:#000000"/>
		</linearGradient>
		<path class="st0" d="M23.83,20.21H17.9c-0.24,0-0.47-0.13-0.59-0.34l-2.96-5.14c-0.12-0.21-0.12-0.47,0-0.68l2.96-5.13
			c0.12-0.21,0.35-0.34,0.59-0.34h5.93c0.24,0,0.47,0.13,0.59,0.34l2.96,5.13c0.12,0.21,0.12,0.47,0,0.68l-2.96,5.14
			C24.3,20.08,24.07,20.21,23.83,20.21z M18.29,18.85h5.15l2.57-4.46l-2.57-4.46h-5.15l-2.57,4.46L18.29,18.85z"/>
	</g>
	<g>
		<linearGradient id="SVGID_2_" gradientUnits="userSpaceOnUse" x1="19.9529" y1="78.2703" x2="18.818" y2="-40.5083">
			<stop  offset="0.0238" style="stop-color:#00FFF4"/>
			<stop  offset="0.1563" style="stop-color:#00FBF0"/>
			<stop  offset="0.2802" style="stop-color:#00F0E6"/>
			<stop  offset="0.4007" style="stop-color:#00DDD3"/>
			<stop  offset="0.5191" style="stop-color:#00C2BA"/>
			<stop  offset="0.6361" style="stop-color:#00A099"/>
			<stop  offset="0.752" style="stop-color:#007671"/>
			<stop  offset="0.867" style="stop-color:#004441"/>
			<stop  offset="0.9786" style="stop-color:#000C0B"/>
			<stop  offset="1" style="stop-color:#000000"/>
		</linearGradient>
		<path class="st1" d="M20.8,6.77h-3.13c-0.24,0-0.47-0.13-0.59-0.34l-1.56-2.71c-0.12-0.21-0.12-0.47,0-0.68l1.56-2.71
			C17.21,0.13,17.43,0,17.67,0h3.13c0.24,0,0.47,0.13,0.59,0.34l1.56,2.71c0.12,0.21,0.12,0.47,0,0.68l-1.56,2.71
			C21.27,6.64,21.04,6.77,20.8,6.77z M18.07,5.42h2.34l1.17-2.03l-1.17-2.03h-2.34l-1.17,2.03L18.07,5.42z"/>
	</g>
	<g>
		<linearGradient id="SVGID_3_" gradientUnits="userSpaceOnUse" x1="39.3466" y1="78.0856" x2="38.2118" y2="-40.6942">
			<stop  offset="0.0238" style="stop-color:#00FFF4"/>
			<stop  offset="0.1563" style="stop-color:#00FBF0"/>
			<stop  offset="0.2802" style="stop-color:#00F0E6"/>
			<stop  offset="0.4007" style="stop-color:#00DDD3"/>
			<stop  offset="0.5191" style="stop-color:#00C2BA"/>
			<stop  offset="0.6361" style="stop-color:#00A099"/>
			<stop  offset="0.752" style="stop-color:#007671"/>
			<stop  offset="0.867" style="stop-color:#004441"/>
			<stop  offset="0.9786" style="stop-color:#000C0B"/>
			<stop  offset="1" style="stop-color:#000000"/>
		</linearGradient>
		<path class="st2" d="M40.4,28.27h-3.13c-0.24,0-0.47-0.13-0.59-0.34l-1.56-2.71c-0.12-0.21-0.12-0.47,0-0.68l1.56-2.71
			c0.12-0.21,0.35-0.34,0.59-0.34h3.13c0.24,0,0.47,0.13,0.59,0.34l1.56,2.71c0.12,0.21,0.12,0.47,0,0.68l-1.56,2.71
			C40.87,28.14,40.64,28.27,40.4,28.27z M37.67,26.91h2.34l1.17-2.03l-1.17-2.03h-2.34l-1.17,2.03L37.67,26.91z"/>
	</g>
	<g>
		<linearGradient id="SVGID_4_" gradientUnits="userSpaceOnUse" x1="4.3826" y1="78.4197" x2="3.2478" y2="-40.3598">
			<stop  offset="0.0238" style="stop-color:#00FFF4"/>
			<stop  offset="0.1563" style="stop-color:#00FBF0"/>
			<stop  offset="0.2802" style="stop-color:#00F0E6"/>
			<stop  offset="0.4007" style="stop-color:#00DDD3"/>
			<stop  offset="0.5191" style="stop-color:#00C2BA"/>
			<stop  offset="0.6361" style="stop-color:#00A099"/>
			<stop  offset="0.752" style="stop-color:#007671"/>
			<stop  offset="0.867" style="stop-color:#004441"/>
			<stop  offset="0.9786" style="stop-color:#000C0B"/>
			<stop  offset="1" style="stop-color:#000000"/>
		</linearGradient>
		<path class="st3" d="M5.37,21.45H2.24c-0.24,0-0.47-0.13-0.59-0.34L0.09,18.4c-0.12-0.21-0.12-0.47,0-0.68l1.56-2.71
			C1.78,14.8,2,14.67,2.24,14.67h3.13c0.24,0,0.47,0.13,0.59,0.34l1.56,2.71c0.12,0.21,0.12,0.47,0,0.68l-1.56,2.71
			C5.84,21.32,5.61,21.45,5.37,21.45z M2.63,20.09h2.34l1.17-2.03l-1.17-2.03H2.63l-1.17,2.03L2.63,20.09z"/>
	</g>
	<g>
		<linearGradient id="SVGID_5_" gradientUnits="userSpaceOnUse" x1="9.7203" y1="78.3684" x2="8.5855" y2="-40.4106">
			<stop  offset="0.0238" style="stop-color:#00FFF4"/>
			<stop  offset="0.1563" style="stop-color:#00FBF0"/>
			<stop  offset="0.2802" style="stop-color:#00F0E6"/>
			<stop  offset="0.4007" style="stop-color:#00DDD3"/>
			<stop  offset="0.5191" style="stop-color:#00C2BA"/>
			<stop  offset="0.6361" style="stop-color:#00A099"/>
			<stop  offset="0.752" style="stop-color:#007671"/>
			<stop  offset="0.867" style="stop-color:#004441"/>
			<stop  offset="0.9786" style="stop-color:#000C0B"/>
			<stop  offset="1" style="stop-color:#000000"/>
		</linearGradient>
		<path class="st4" d="M10.87,13.42H7.26c-0.24,0-0.47-0.13-0.59-0.34L4.86,9.95c-0.12-0.21-0.12-0.47,0-0.68l1.81-3.13
			C6.79,5.93,7.01,5.8,7.26,5.8h3.62c0.24,0,0.47,0.13,0.59,0.34l1.81,3.13c0.12,0.21,0.12,0.47,0,0.68l-1.81,3.13
			C11.34,13.29,11.11,13.42,10.87,13.42z M7.65,12.06h2.83l1.42-2.45l-1.42-2.45H7.65L6.23,9.61L7.65,12.06z"/>
	</g>
	<g>
		<linearGradient id="SVGID_6_" gradientUnits="userSpaceOnUse" x1="18.251" y1="78.2868" x2="17.1161" y2="-40.4922">
			<stop  offset="0.0238" style="stop-color:#00FFF4"/>
			<stop  offset="0.1563" style="stop-color:#00FBF0"/>
			<stop  offset="0.2802" style="stop-color:#00F0E6"/>
			<stop  offset="0.4007" style="stop-color:#00DDD3"/>
			<stop  offset="0.5191" style="stop-color:#00C2BA"/>
			<stop  offset="0.6361" style="stop-color:#00A099"/>
			<stop  offset="0.752" style="stop-color:#007671"/>
			<stop  offset="0.867" style="stop-color:#004441"/>
			<stop  offset="0.9786" style="stop-color:#000C0B"/>
			<stop  offset="1" style="stop-color:#000000"/>
		</linearGradient>
		<path class="st5" d="M18.95,27.95h-2.41c-0.24,0-0.47-0.13-0.59-0.34l-1.21-2.09c-0.12-0.21-0.12-0.47,0-0.68l1.21-2.09
			c0.12-0.21,0.35-0.34,0.59-0.34h2.41c0.24,0,0.47,0.13,0.59,0.34l1.21,2.09c0.12,0.21,0.12,0.47,0,0.68l-1.21,2.09
			C19.42,27.83,19.19,27.95,18.95,27.95z M16.93,26.6h1.63l0.81-1.41l-0.81-1.41h-1.63l-0.81,1.41L16.93,26.6z"/>
	</g>
	<g>
		<linearGradient id="SVGID_7_" gradientUnits="userSpaceOnUse" x1="33.7307" y1="78.1388" x2="32.5959" y2="-40.6394">
			<stop  offset="0.0238" style="stop-color:#00FFF4"/>
			<stop  offset="0.1563" style="stop-color:#00FBF0"/>
			<stop  offset="0.2802" style="stop-color:#00F0E6"/>
			<stop  offset="0.4007" style="stop-color:#00DDD3"/>
			<stop  offset="0.5191" style="stop-color:#00C2BA"/>
			<stop  offset="0.6361" style="stop-color:#00A099"/>
			<stop  offset="0.752" style="stop-color:#007671"/>
			<stop  offset="0.867" style="stop-color:#004441"/>
			<stop  offset="0.9786" style="stop-color:#000C0B"/>
			<stop  offset="1" style="stop-color:#000000"/>
		</linearGradient>
		<path class="st6" d="M33.9,36.28h-1.16c-0.12,0-0.23-0.06-0.29-0.17l-0.58-1c-0.06-0.1-0.06-0.23,0-0.34l0.58-1
			c0.06-0.1,0.17-0.17,0.29-0.17h1.16c0.12,0,0.23,0.06,0.29,0.17l0.58,1c0.06,0.11,0.06,0.23,0,0.34l-0.58,1
			C34.13,36.22,34.02,36.28,33.9,36.28z M32.93,35.6h0.77l0.38-0.67l-0.38-0.67h-0.77l-0.38,0.67L32.93,35.6z"/>
	</g>
	<g>
		<linearGradient id="SVGID_8_" gradientUnits="userSpaceOnUse" x1="10.6684" y1="78.3596" x2="9.5335" y2="-40.42">
			<stop  offset="0.0238" style="stop-color:#00FFF4"/>
			<stop  offset="0.1563" style="stop-color:#00FBF0"/>
			<stop  offset="0.2802" style="stop-color:#00F0E6"/>
			<stop  offset="0.4007" style="stop-color:#00DDD3"/>
			<stop  offset="0.5191" style="stop-color:#00C2BA"/>
			<stop  offset="0.6361" style="stop-color:#00A099"/>
			<stop  offset="0.752" style="stop-color:#007671"/>
			<stop  offset="0.867" style="stop-color:#004441"/>
			<stop  offset="0.9786" style="stop-color:#000C0B"/>
			<stop  offset="1" style="stop-color:#000000"/>
		</linearGradient>
		<polygon class="st7" points="11.28,14.31 8.87,14.31 7.66,16.4 8.87,18.49 11.28,18.49 12.49,16.4 		"/>
	</g>
	<g>
		<linearGradient id="SVGID_9_" gradientUnits="userSpaceOnUse" x1="31.0387" y1="78.1647" x2="29.9039" y2="-40.6149">
			<stop  offset="0.0238" style="stop-color:#00FFF4"/>
			<stop  offset="0.1563" style="stop-color:#00FBF0"/>
			<stop  offset="0.2802" style="stop-color:#00F0E6"/>
			<stop  offset="0.4007" style="stop-color:#00DDD3"/>
			<stop  offset="0.5191" style="stop-color:#00C2BA"/>
			<stop  offset="0.6361" style="stop-color:#00A099"/>
			<stop  offset="0.752" style="stop-color:#007671"/>
			<stop  offset="0.867" style="stop-color:#004441"/>
			<stop  offset="0.9786" style="stop-color:#000C0B"/>
			<stop  offset="1" style="stop-color:#000000"/>
		</linearGradient>
		<polygon class="st8" points="31.79,28.69 29.38,28.69 28.17,30.78 29.38,32.87 31.79,32.87 33,30.78 		"/>
	</g>
	<g>
		<linearGradient id="SVGID_10_" gradientUnits="userSpaceOnUse" x1="29.9772" y1="78.1753" x2="28.8424" y2="-40.6046">
			<stop  offset="0.0238" style="stop-color:#00FFF4"/>
			<stop  offset="0.1563" style="stop-color:#00FBF0"/>
			<stop  offset="0.2802" style="stop-color:#00F0E6"/>
			<stop  offset="0.4007" style="stop-color:#00DDD3"/>
			<stop  offset="0.5191" style="stop-color:#00C2BA"/>
			<stop  offset="0.6361" style="stop-color:#00A099"/>
			<stop  offset="0.752" style="stop-color:#007671"/>
			<stop  offset="0.867" style="stop-color:#004441"/>
			<stop  offset="0.9786" style="stop-color:#000C0B"/>
			<stop  offset="1" style="stop-color:#000000"/>
		</linearGradient>
		<polygon class="st9" points="30.25,10.14 28.43,10.14 27.52,11.72 28.43,13.3 30.25,13.3 31.16,11.72 		"/>
	</g>
	<g>
		<linearGradient id="SVGID_11_" gradientUnits="userSpaceOnUse" x1="36.9745" y1="78.1077" x2="35.8397" y2="-40.6702">
			<stop  offset="0.0238" style="stop-color:#00FFF4"/>
			<stop  offset="0.1563" style="stop-color:#00FBF0"/>
			<stop  offset="0.2802" style="stop-color:#00F0E6"/>
			<stop  offset="0.4007" style="stop-color:#00DDD3"/>
			<stop  offset="0.5191" style="stop-color:#00C2BA"/>
			<stop  offset="0.6361" style="stop-color:#00A099"/>
			<stop  offset="0.752" style="stop-color:#007671"/>
			<stop  offset="0.867" style="stop-color:#004441"/>
			<stop  offset="0.9786" style="stop-color:#000C0B"/>
			<stop  offset="1" style="stop-color:#000000"/>
		</linearGradient>
		<polygon class="st10" points="37.45,30.78 35.63,30.78 34.72,32.35 35.63,33.93 37.45,33.93 38.36,32.35 		"/>
	</g>
	<g>
		<linearGradient id="SVGID_12_" gradientUnits="userSpaceOnUse" x1="25.7002" y1="78.2149" x2="24.5654" y2="-40.5629">
			<stop  offset="0.0238" style="stop-color:#00FFF4"/>
			<stop  offset="0.1563" style="stop-color:#00FBF0"/>
			<stop  offset="0.2802" style="stop-color:#00F0E6"/>
			<stop  offset="0.4007" style="stop-color:#00DDD3"/>
			<stop  offset="0.5191" style="stop-color:#00C2BA"/>
			<stop  offset="0.6361" style="stop-color:#00A099"/>
			<stop  offset="0.752" style="stop-color:#007671"/>
			<stop  offset="0.867" style="stop-color:#004441"/>
			<stop  offset="0.9786" style="stop-color:#000C0B"/>
			<stop  offset="1" style="stop-color:#000000"/>
		</linearGradient>
		<polygon class="st11" points="25.88,0.3 24.06,0.3 23.15,1.88 24.06,3.46 25.88,3.46 26.79,1.88 		"/>
	</g>
	<g>
		<linearGradient id="SVGID_13_" gradientUnits="userSpaceOnUse" x1="13.2174" y1="78.3346" x2="12.0825" y2="-40.4438">
			<stop  offset="0.0238" style="stop-color:#00FFF4"/>
			<stop  offset="0.1563" style="stop-color:#00FBF0"/>
			<stop  offset="0.2802" style="stop-color:#00F0E6"/>
			<stop  offset="0.4007" style="stop-color:#00DDD3"/>
			<stop  offset="0.5191" style="stop-color:#00C2BA"/>
			<stop  offset="0.6361" style="stop-color:#00A099"/>
			<stop  offset="0.752" style="stop-color:#007671"/>
			<stop  offset="0.867" style="stop-color:#004441"/>
			<stop  offset="0.9786" style="stop-color:#000C0B"/>
			<stop  offset="1" style="stop-color:#000000"/>
		</linearGradient>
		<polygon class="st12" points="13.43,20.71 11.93,20.71 11.18,22.02 11.93,23.32 13.43,23.32 14.18,22.02 		"/>
	</g>
	<g>
		<linearGradient id="SVGID_14_" gradientUnits="userSpaceOnUse" x1="33.5049" y1="78.1408" x2="32.3701" y2="-40.6376">
			<stop  offset="0.0238" style="stop-color:#00FFF4"/>
			<stop  offset="0.1563" style="stop-color:#00FBF0"/>
			<stop  offset="0.2802" style="stop-color:#00F0E6"/>
			<stop  offset="0.4007" style="stop-color:#00DDD3"/>
			<stop  offset="0.5191" style="stop-color:#00C2BA"/>
			<stop  offset="0.6361" style="stop-color:#00A099"/>
			<stop  offset="0.752" style="stop-color:#007671"/>
			<stop  offset="0.867" style="stop-color:#004441"/>
			<stop  offset="0.9786" style="stop-color:#000C0B"/>
			<stop  offset="1" style="stop-color:#000000"/>
		</linearGradient>
		<polygon class="st13" points="33.73,21.29 32.22,21.29 31.47,22.59 32.22,23.89 33.73,23.89 34.48,22.59 		"/>
	</g>
	<g>
		<linearGradient id="SVGID_15_" gradientUnits="userSpaceOnUse" x1="28.4926" y1="78.1887" x2="27.3577" y2="-40.5897">
			<stop  offset="0.0238" style="stop-color:#00FFF4"/>
			<stop  offset="0.1563" style="stop-color:#00FBF0"/>
			<stop  offset="0.2802" style="stop-color:#00F0E6"/>
			<stop  offset="0.4007" style="stop-color:#00DDD3"/>
			<stop  offset="0.5191" style="stop-color:#00C2BA"/>
			<stop  offset="0.6361" style="stop-color:#00A099"/>
			<stop  offset="0.752" style="stop-color:#007671"/>
			<stop  offset="0.867" style="stop-color:#004441"/>
			<stop  offset="0.9786" style="stop-color:#000C0B"/>
			<stop  offset="1" style="stop-color:#000000"/>
		</linearGradient>
		<polygon class="st14" points="28.68,18.23 27.18,18.23 26.43,19.53 27.18,20.83 28.68,20.83 29.44,19.53 		"/>
	</g>
	<g>
		<linearGradient id="SVGID_16_" gradientUnits="userSpaceOnUse" x1="23.3646" y1="78.2377" x2="22.2298" y2="-40.5407">
			<stop  offset="0.0238" style="stop-color:#00FFF4"/>
			<stop  offset="0.1563" style="stop-color:#00FBF0"/>
			<stop  offset="0.2802" style="stop-color:#00F0E6"/>
			<stop  offset="0.4007" style="stop-color:#00DDD3"/>
			<stop  offset="0.5191" style="stop-color:#00C2BA"/>
			<stop  offset="0.6361" style="stop-color:#00A099"/>
			<stop  offset="0.752" style="stop-color:#007671"/>
			<stop  offset="0.867" style="stop-color:#004441"/>
			<stop  offset="0.9786" style="stop-color:#000C0B"/>
			<stop  offset="1" style="stop-color:#000000"/>
		</linearGradient>
		<polygon class="st15" points="23.58,21.29 22.08,21.29 21.33,22.59 22.08,23.89 23.58,23.89 24.34,22.59 		"/>
	</g>
	<g>
		<linearGradient id="SVGID_17_" gradientUnits="userSpaceOnUse" x1="2.3515" y1="78.4378" x2="1.2166" y2="-40.339">
			<stop  offset="0.0238" style="stop-color:#00FFF4"/>
			<stop  offset="0.1563" style="stop-color:#00FBF0"/>
			<stop  offset="0.2802" style="stop-color:#00F0E6"/>
			<stop  offset="0.4007" style="stop-color:#00DDD3"/>
			<stop  offset="0.5191" style="stop-color:#00C2BA"/>
			<stop  offset="0.6361" style="stop-color:#00A099"/>
			<stop  offset="0.752" style="stop-color:#007671"/>
			<stop  offset="0.867" style="stop-color:#004441"/>
			<stop  offset="0.9786" style="stop-color:#000C0B"/>
			<stop  offset="1" style="stop-color:#000000"/>
		</linearGradient>
		<polygon class="st16" points="2.21,26.38 1.51,26.38 1.16,26.98 1.51,27.59 2.21,27.59 2.56,26.98 		"/>
	</g>
	<g>
		<linearGradient id="SVGID_18_" gradientUnits="userSpaceOnUse" x1="6.0688" y1="78.405" x2="4.9339" y2="-40.3772">
			<stop  offset="0.0238" style="stop-color:#00FFF4"/>
			<stop  offset="0.1563" style="stop-color:#00FBF0"/>
			<stop  offset="0.2802" style="stop-color:#00F0E6"/>
			<stop  offset="0.4007" style="stop-color:#00DDD3"/>
			<stop  offset="0.5191" style="stop-color:#00C2BA"/>
			<stop  offset="0.6361" style="stop-color:#00A099"/>
			<stop  offset="0.752" style="stop-color:#007671"/>
			<stop  offset="0.867" style="stop-color:#004441"/>
			<stop  offset="0.9786" style="stop-color:#000C0B"/>
			<stop  offset="1" style="stop-color:#000000"/>
		</linearGradient>
		<polygon class="st17" points="5.8,12.77 5.1,12.77 4.75,13.38 5.1,13.99 5.8,13.99 6.15,13.38 		"/>
	</g>
	<g>
		<linearGradient id="SVGID_19_" gradientUnits="userSpaceOnUse" x1="42.6782" y1="78.055" x2="41.5433" y2="-40.7272">
			<stop  offset="0.0238" style="stop-color:#00FFF4"/>
			<stop  offset="0.1563" style="stop-color:#00FBF0"/>
			<stop  offset="0.2802" style="stop-color:#00F0E6"/>
			<stop  offset="0.4007" style="stop-color:#00DDD3"/>
			<stop  offset="0.5191" style="stop-color:#00C2BA"/>
			<stop  offset="0.6361" style="stop-color:#00A099"/>
			<stop  offset="0.752" style="stop-color:#007671"/>
			<stop  offset="0.867" style="stop-color:#004441"/>
			<stop  offset="0.9786" style="stop-color:#000C0B"/>
			<stop  offset="1" style="stop-color:#000000"/>
		</linearGradient>
		<polygon class="st18" points="42.48,20.11 41.78,20.11 41.43,20.71 41.78,21.32 42.48,21.32 42.83,20.71 		"/>
	</g>
	<g>
		<linearGradient id="SVGID_20_" gradientUnits="userSpaceOnUse" x1="36.5182" y1="78.1116" x2="35.3834" y2="-40.6652">
			<stop  offset="0.0238" style="stop-color:#00FFF4"/>
			<stop  offset="0.1563" style="stop-color:#00FBF0"/>
			<stop  offset="0.2802" style="stop-color:#00F0E6"/>
			<stop  offset="0.4007" style="stop-color:#00DDD3"/>
			<stop  offset="0.5191" style="stop-color:#00C2BA"/>
			<stop  offset="0.6361" style="stop-color:#00A099"/>
			<stop  offset="0.752" style="stop-color:#007671"/>
			<stop  offset="0.867" style="stop-color:#004441"/>
			<stop  offset="0.9786" style="stop-color:#000C0B"/>
			<stop  offset="1" style="stop-color:#000000"/>
		</linearGradient>
		<polygon class="st19" points="36.47,35.34 35.76,35.34 35.41,35.94 35.76,36.55 36.47,36.55 36.82,35.94 		"/>
	</g>
	<g>
		<linearGradient id="SVGID_21_" gradientUnits="userSpaceOnUse" x1="3.094" y1="78.4306" x2="1.9591" y2="-40.3462">
			<stop  offset="0.0238" style="stop-color:#00FFF4"/>
			<stop  offset="0.1563" style="stop-color:#00FBF0"/>
			<stop  offset="0.2802" style="stop-color:#00F0E6"/>
			<stop  offset="0.4007" style="stop-color:#00DDD3"/>
			<stop  offset="0.5191" style="stop-color:#00C2BA"/>
			<stop  offset="0.6361" style="stop-color:#00A099"/>
			<stop  offset="0.752" style="stop-color:#007671"/>
			<stop  offset="0.867" style="stop-color:#004441"/>
			<stop  offset="0.9786" style="stop-color:#000C0B"/>
			<stop  offset="1" style="stop-color:#000000"/>
		</linearGradient>
		<polygon class="st20" points="2.91,21.98 2.21,21.98 1.86,22.59 2.21,23.2 2.91,23.2 3.26,22.59 		"/>
	</g>
	<g>
		<linearGradient id="SVGID_22_" gradientUnits="userSpaceOnUse" x1="24.9359" y1="78.2248" x2="23.801" y2="-40.5574">
			<stop  offset="0.0238" style="stop-color:#00FFF4"/>
			<stop  offset="0.1563" style="stop-color:#00FBF0"/>
			<stop  offset="0.2802" style="stop-color:#00F0E6"/>
			<stop  offset="0.4007" style="stop-color:#00DDD3"/>
			<stop  offset="0.5191" style="stop-color:#00C2BA"/>
			<stop  offset="0.6361" style="stop-color:#00A099"/>
			<stop  offset="0.752" style="stop-color:#007671"/>
			<stop  offset="0.867" style="stop-color:#004441"/>
			<stop  offset="0.9786" style="stop-color:#000C0B"/>
			<stop  offset="1" style="stop-color:#000000"/>
		</linearGradient>
		<polygon class="st21" points="24.61,6.67 23.91,6.67 23.56,7.28 23.91,7.88 24.61,7.88 24.96,7.28 		"/>
	</g>
	<g>
		<linearGradient id="SVGID_23_" gradientUnits="userSpaceOnUse" x1="37.2169" y1="78.1043" x2="36.0821" y2="-40.6725">
			<stop  offset="0.0238" style="stop-color:#00FFF4"/>
			<stop  offset="0.1563" style="stop-color:#00FBF0"/>
			<stop  offset="0.2802" style="stop-color:#00F0E6"/>
			<stop  offset="0.4007" style="stop-color:#00DDD3"/>
			<stop  offset="0.5191" style="stop-color:#00C2BA"/>
			<stop  offset="0.6361" style="stop-color:#00A099"/>
			<stop  offset="0.752" style="stop-color:#007671"/>
			<stop  offset="0.867" style="stop-color:#004441"/>
			<stop  offset="0.9786" style="stop-color:#000C0B"/>
			<stop  offset="1" style="stop-color:#000000"/>
		</linearGradient>
		<polygon class="st22" points="36.89,6.38 36.19,6.38 35.84,6.98 36.19,7.59 36.89,7.59 37.24,6.98 		"/>
	</g>
	<g>
		<linearGradient id="SVGID_24_" gradientUnits="userSpaceOnUse" x1="13.7582" y1="78.3298" x2="12.6234" y2="-40.4496">
			<stop  offset="0.0238" style="stop-color:#00FFF4"/>
			<stop  offset="0.1563" style="stop-color:#00FBF0"/>
			<stop  offset="0.2802" style="stop-color:#00F0E6"/>
			<stop  offset="0.4007" style="stop-color:#00DDD3"/>
			<stop  offset="0.5191" style="stop-color:#00C2BA"/>
			<stop  offset="0.6361" style="stop-color:#00A099"/>
			<stop  offset="0.752" style="stop-color:#007671"/>
			<stop  offset="0.867" style="stop-color:#004441"/>
			<stop  offset="0.9786" style="stop-color:#000C0B"/>
			<stop  offset="1" style="stop-color:#000000"/>
		</linearGradient>
		<polygon class="st23" points="13.6,3.39 12.5,3.39 11.95,4.34 12.5,5.29 13.6,5.29 14.15,4.34 		"/>
	</g>
	<g>
		<linearGradient id="SVGID_25_" gradientUnits="userSpaceOnUse" x1="16.1387" y1="78.3072" x2="15.0039" y2="-40.4722">
			<stop  offset="0.0238" style="stop-color:#00FFF4"/>
			<stop  offset="0.1563" style="stop-color:#00FBF0"/>
			<stop  offset="0.2802" style="stop-color:#00F0E6"/>
			<stop  offset="0.4007" style="stop-color:#00DDD3"/>
			<stop  offset="0.5191" style="stop-color:#00C2BA"/>
			<stop  offset="0.6361" style="stop-color:#00A099"/>
			<stop  offset="0.752" style="stop-color:#007671"/>
			<stop  offset="0.867" style="stop-color:#004441"/>
			<stop  offset="0.9786" style="stop-color:#000C0B"/>
			<stop  offset="1" style="stop-color:#000000"/>
		</linearGradient>
		<polygon class="st24" points="16.02,7.36 14.92,7.36 14.37,8.31 14.92,9.26 16.02,9.26 16.57,8.31 		"/>
	</g>
	<g>
		<linearGradient id="SVGID_26_" gradientUnits="userSpaceOnUse" x1="25.415" y1="78.2185" x2="24.2802" y2="-40.5609">
			<stop  offset="0.0238" style="stop-color:#00FFF4"/>
			<stop  offset="0.1563" style="stop-color:#00FBF0"/>
			<stop  offset="0.2802" style="stop-color:#00F0E6"/>
			<stop  offset="0.4007" style="stop-color:#00DDD3"/>
			<stop  offset="0.5191" style="stop-color:#00C2BA"/>
			<stop  offset="0.6361" style="stop-color:#00A099"/>
			<stop  offset="0.752" style="stop-color:#007671"/>
			<stop  offset="0.867" style="stop-color:#004441"/>
			<stop  offset="0.9786" style="stop-color:#000C0B"/>
			<stop  offset="1" style="stop-color:#000000"/>
		</linearGradient>
		<polygon class="st25" points="25.51,29.5 24.41,29.5 23.86,30.45 24.41,31.4 25.51,31.4 26.06,30.45 		"/>
	</g>
	<g>
		<linearGradient id="SVGID_27_" gradientUnits="userSpaceOnUse" x1="13.5364" y1="78.332" x2="12.4015" y2="-40.4474">
			<stop  offset="0.0238" style="stop-color:#00FFF4"/>
			<stop  offset="0.1563" style="stop-color:#00FBF0"/>
			<stop  offset="0.2802" style="stop-color:#00F0E6"/>
			<stop  offset="0.4007" style="stop-color:#00DDD3"/>
			<stop  offset="0.5191" style="stop-color:#00C2BA"/>
			<stop  offset="0.6361" style="stop-color:#00A099"/>
			<stop  offset="0.752" style="stop-color:#007671"/>
			<stop  offset="0.867" style="stop-color:#004441"/>
			<stop  offset="0.9786" style="stop-color:#000C0B"/>
			<stop  offset="1" style="stop-color:#000000"/>
		</linearGradient>
		<polygon class="st26" points="13.6,26.61 12.5,26.61 11.95,27.56 12.5,28.51 13.6,28.51 14.15,27.56 		"/>
	</g>
	<g>
		<linearGradient id="SVGID_28_" gradientUnits="userSpaceOnUse" x1="22.8131" y1="78.2434" x2="21.6782" y2="-40.536">
			<stop  offset="0.0238" style="stop-color:#00FFF4"/>
			<stop  offset="0.1563" style="stop-color:#00FBF0"/>
			<stop  offset="0.2802" style="stop-color:#00F0E6"/>
			<stop  offset="0.4007" style="stop-color:#00DDD3"/>
			<stop  offset="0.5191" style="stop-color:#00C2BA"/>
			<stop  offset="0.6361" style="stop-color:#00A099"/>
			<stop  offset="0.752" style="stop-color:#007671"/>
			<stop  offset="0.867" style="stop-color:#004441"/>
			<stop  offset="0.9786" style="stop-color:#000C0B"/>
			<stop  offset="1" style="stop-color:#000000"/>
		</linearGradient>
		<polygon class="st27" points="22.87,25.8 21.77,25.8 21.22,26.75 21.77,27.7 22.87,27.7 23.42,26.75 		"/>
	</g>
	<g>
		<linearGradient id="SVGID_29_" gradientUnits="userSpaceOnUse" x1="31.1679" y1="78.1635" x2="30.0331" y2="-40.6159">
			<stop  offset="0.0238" style="stop-color:#00FFF4"/>
			<stop  offset="0.1563" style="stop-color:#00FBF0"/>
			<stop  offset="0.2802" style="stop-color:#00F0E6"/>
			<stop  offset="0.4007" style="stop-color:#00DDD3"/>
			<stop  offset="0.5191" style="stop-color:#00C2BA"/>
			<stop  offset="0.6361" style="stop-color:#00A099"/>
			<stop  offset="0.752" style="stop-color:#007671"/>
			<stop  offset="0.867" style="stop-color:#004441"/>
			<stop  offset="0.9786" style="stop-color:#000C0B"/>
			<stop  offset="1" style="stop-color:#000000"/>
		</linearGradient>
		<polygon class="st28" points="31.13,16.3 30.04,16.3 29.49,17.25 30.04,18.2 31.13,18.2 31.68,17.25 		"/>
	</g>
	<g>
		<linearGradient id="SVGID_30_" gradientUnits="userSpaceOnUse" x1="33.9196" y1="78.1373" x2="32.7847" y2="-40.6421">
			<stop  offset="0.0238" style="stop-color:#00FFF4"/>
			<stop  offset="0.1563" style="stop-color:#00FBF0"/>
			<stop  offset="0.2802" style="stop-color:#00F0E6"/>
			<stop  offset="0.4007" style="stop-color:#00DDD3"/>
			<stop  offset="0.5191" style="stop-color:#00C2BA"/>
			<stop  offset="0.6361" style="stop-color:#00A099"/>
			<stop  offset="0.752" style="stop-color:#007671"/>
			<stop  offset="0.867" style="stop-color:#004441"/>
			<stop  offset="0.9786" style="stop-color:#000C0B"/>
			<stop  offset="1" style="stop-color:#000000"/>
		</linearGradient>
		<polygon class="st29" points="33.99,26.61 32.89,26.61 32.34,27.56 32.89,28.51 33.99,28.51 34.53,27.56 		"/>
	</g>
	<g>
		<linearGradient id="SVGID_31_" gradientUnits="userSpaceOnUse" x1="28.4288" y1="78.1896" x2="27.294" y2="-40.5897">
			<stop  offset="0.0238" style="stop-color:#00FFF4"/>
			<stop  offset="0.1563" style="stop-color:#00FBF0"/>
			<stop  offset="0.2802" style="stop-color:#00F0E6"/>
			<stop  offset="0.4007" style="stop-color:#00DDD3"/>
			<stop  offset="0.5191" style="stop-color:#00C2BA"/>
			<stop  offset="0.6361" style="stop-color:#00A099"/>
			<stop  offset="0.752" style="stop-color:#007671"/>
			<stop  offset="0.867" style="stop-color:#004441"/>
			<stop  offset="0.9786" style="stop-color:#000C0B"/>
			<stop  offset="1" style="stop-color:#000000"/>
		</linearGradient>
		<path class="st30" d="M29.13,27.93h-2.41c-0.24,0-0.47-0.13-0.59-0.34l-1.21-2.09c-0.12-0.21-0.12-0.47,0-0.68l1.21-2.09
			c0.12-0.21,0.35-0.34,0.59-0.34h2.41c0.24,0,0.47,0.13,0.59,0.34l1.21,2.09c0.12,0.21,0.12,0.47,0,0.68l-1.21,2.09
			C29.6,27.81,29.37,27.93,29.13,27.93z M27.11,26.58h1.63l0.81-1.41l-0.81-1.41h-1.63l-0.81,1.41L27.11,26.58z"/>
	</g>
	<g>
		<linearGradient id="SVGID_32_" gradientUnits="userSpaceOnUse" x1="30.9124" y1="78.1659" x2="29.7776" y2="-40.6131">
			<stop  offset="0.0238" style="stop-color:#00FFF4"/>
			<stop  offset="0.1563" style="stop-color:#00FBF0"/>
			<stop  offset="0.2802" style="stop-color:#00F0E6"/>
			<stop  offset="0.4007" style="stop-color:#00DDD3"/>
			<stop  offset="0.5191" style="stop-color:#00C2BA"/>
			<stop  offset="0.6361" style="stop-color:#00A099"/>
			<stop  offset="0.752" style="stop-color:#007671"/>
			<stop  offset="0.867" style="stop-color:#004441"/>
			<stop  offset="0.9786" style="stop-color:#000C0B"/>
			<stop  offset="1" style="stop-color:#000000"/>
		</linearGradient>
		<path class="st31" d="M32.03,9.23h-3.62c-0.24,0-0.47-0.13-0.59-0.34l-1.81-3.13c-0.12-0.21-0.12-0.47,0-0.68l1.81-3.13
			c0.12-0.21,0.35-0.34,0.59-0.34h3.62c0.24,0,0.47,0.13,0.59,0.34l1.81,3.13c0.12,0.21,0.12,0.47,0,0.68L32.61,8.9
			C32.49,9.11,32.27,9.23,32.03,9.23z M28.8,7.88h2.83l1.42-2.45l-1.42-2.45H28.8l-1.42,2.45L28.8,7.88z"/>
	</g>
	<g>
		<linearGradient id="SVGID_33_" gradientUnits="userSpaceOnUse" x1="7.3389" y1="78.3911" x2="6.2041" y2="-40.3882">
			<stop  offset="0.0238" style="stop-color:#00FFF4"/>
			<stop  offset="0.1563" style="stop-color:#00FBF0"/>
			<stop  offset="0.2802" style="stop-color:#00F0E6"/>
			<stop  offset="0.4007" style="stop-color:#00DDD3"/>
			<stop  offset="0.5191" style="stop-color:#00C2BA"/>
			<stop  offset="0.6361" style="stop-color:#00A099"/>
			<stop  offset="0.752" style="stop-color:#007671"/>
			<stop  offset="0.867" style="stop-color:#004441"/>
			<stop  offset="0.9786" style="stop-color:#000C0B"/>
			<stop  offset="1" style="stop-color:#000000"/>
		</linearGradient>
		<path class="st32" d="M8.64,29.54H5.03c-0.24,0-0.47-0.13-0.59-0.34l-1.81-3.13c-0.12-0.21-0.12-0.47,0-0.68l1.81-3.13
			c0.12-0.21,0.35-0.34,0.59-0.34h3.62c0.24,0,0.47,0.13,0.59,0.34l1.81,3.13c0.12,0.21,0.12,0.47,0,0.68L9.23,29.2
			C9.11,29.41,8.89,29.54,8.64,29.54z M5.42,28.18h2.83l1.42-2.45l-1.42-2.45H5.42L4,25.73L5.42,28.18z"/>
	</g>
	<g>
		<linearGradient id="SVGID_34_" gradientUnits="userSpaceOnUse" x1="38.1534" y1="78.0969" x2="37.0186" y2="-40.6821">
			<stop  offset="0.0238" style="stop-color:#00FFF4"/>
			<stop  offset="0.1563" style="stop-color:#00FBF0"/>
			<stop  offset="0.2802" style="stop-color:#00F0E6"/>
			<stop  offset="0.4007" style="stop-color:#00DDD3"/>
			<stop  offset="0.5191" style="stop-color:#00C2BA"/>
			<stop  offset="0.6361" style="stop-color:#00A099"/>
			<stop  offset="0.752" style="stop-color:#007671"/>
			<stop  offset="0.867" style="stop-color:#004441"/>
			<stop  offset="0.9786" style="stop-color:#000C0B"/>
			<stop  offset="1" style="stop-color:#000000"/>
		</linearGradient>
		<path class="st33" d="M40.37,19.97h-5.65c-0.24,0-0.47-0.13-0.59-0.34l-2.83-4.9c-0.12-0.21-0.12-0.47,0-0.68l2.83-4.9
			c0.12-0.21,0.35-0.34,0.59-0.34h5.65c0.24,0,0.47,0.13,0.59,0.34l2.83,4.9c0.12,0.21,0.12,0.47,0,0.68l-2.83,4.9
			C40.84,19.84,40.61,19.97,40.37,19.97z M35.11,18.61h4.87l2.43-4.22l-2.43-4.22h-4.87l-2.44,4.22L35.11,18.61z"/>
	</g>
</g>
<g>
	<g>
		<path class="st34" d="M59.68,16.14c-1.29,0.62-2.84,1-4.87,1c-4.16,0-7.05-2.79-7.05-6.82c0-4.14,3.03-6.74,7-6.74
			c2.04,0,3.86,0.66,4.9,1.62l-1.59,1.71c-0.66-0.73-1.91-1.31-3.3-1.31c-2.72,0-4.48,2.06-4.48,4.72c0,2.75,1.75,4.76,4.59,4.76
			c0.97,0,1.82-0.15,2.57-0.46v-3.28h-2.72V9.45h4.94V16.14z"/>
		<path class="st34" d="M62.46,3.91h8.55v2h-6.25V9.2h5.92v1.93h-5.92v3.65h6.58v2.04h-8.88V3.91z"/>
		<path class="st34" d="M73.57,3.91h3.04l6,9.66h0.04V3.91h2.3v12.9h-2.92l-6.12-9.97h-0.04v9.97h-2.3V3.91z"/>
		<path class="st34" d="M87.78,3.91h2.3v12.9h-2.3V3.91z"/>
		<path class="st34" d="M103.2,12.08c0,3.12-2.24,5.07-5.19,5.07c-2.95,0-5.19-1.95-5.19-5.07V3.91h2.3v8.07
			c0,1.49,0.69,3.1,2.9,3.1c2.21,0,2.9-1.6,2.9-3.1V3.91h2.3V12.08z"/>
		<path class="st34" d="M112.5,6.61c-0.49-0.64-1.46-1.11-2.37-1.11c-1.06,0-2.28,0.51-2.28,1.77c0,1.18,1,1.53,2.46,1.99
			c1.66,0.51,3.77,1.24,3.77,3.77c0,2.77-2.17,4.12-4.7,4.12c-1.68,0-3.41-0.64-4.43-1.84l1.64-1.53c0.64,0.87,1.8,1.42,2.83,1.42
			c1.08,0,2.33-0.53,2.33-1.91c0-1.35-1.35-1.73-2.97-2.24c-1.57-0.49-3.26-1.26-3.26-3.66c0-2.62,2.39-3.79,4.72-3.79
			c1.29,0,2.77,0.45,3.75,1.38L112.5,6.61z"/>
	</g>
	<g>
		<path class="st34" d="M60.74,24.02h5.63v1.36h-4.08v2.39h3.85v1.31h-3.85v3.67h-1.55V24.02z"/>
		<path class="st34" d="M67.8,24.02h5.78v1.36h-4.23v2.22h4.01v1.3h-4.01v2.47h4.45v1.38h-6V24.02z"/>
		<path class="st34" d="M75.32,24.02h5.78v1.36h-4.23v2.22h4.01v1.3h-4.01v2.47h4.45v1.38h-6V24.02z"/>
		<path class="st34" d="M82.84,24.02h3.09c2.28,0,4.82,1.09,4.82,4.36c0,3.06-2.54,4.36-4.82,4.36h-3.09V24.02z M85.69,31.39
			c1.6,0,3.4-0.65,3.4-3.01c0-2.5-1.8-3.03-3.4-3.03H84.4v6.04H85.69z"/>
		<path class="st34" d="M96.71,25.84c-0.33-0.43-0.99-0.75-1.6-0.75c-0.71,0-1.54,0.34-1.54,1.2c0,0.8,0.68,1.03,1.66,1.34
			c1.12,0.34,2.55,0.84,2.55,2.55c0,1.87-1.47,2.78-3.18,2.78c-1.13,0-2.31-0.43-3-1.24l1.11-1.03c0.43,0.59,1.22,0.96,1.91,0.96
			c0.73,0,1.58-0.36,1.58-1.29c0-0.91-0.91-1.17-2.01-1.52c-1.06-0.33-2.21-0.85-2.21-2.48c0-1.77,1.61-2.56,3.19-2.56
			c0.88,0,1.87,0.31,2.54,0.94L96.71,25.84z"/>
	</g>
</g>
</svg>
