<svg version="1.2" xmlns="http://www.w3.org/2000/svg" viewBox="0 0 115 37" width="115" height="37">
	<title>logo-svg</title>
	<defs>
		<linearGradient id="g1" x2="1" gradientUnits="userSpaceOnUse" gradientTransform="matrix(-1.135,-118.78,134.263,-1.283,21.474,78.256)">
			<stop offset=".024" stop-color="#00fff4"/>
			<stop offset=".156" stop-color="#00fbf0"/>
			<stop offset=".28" stop-color="#00f0e6"/>
			<stop offset=".401" stop-color="#00ddd3"/>
			<stop offset=".519" stop-color="#00c2ba"/>
			<stop offset=".636" stop-color="#00a099"/>
			<stop offset=".752" stop-color="#007671"/>
			<stop offset=".867" stop-color="#004441"/>
			<stop offset=".979" stop-color="#000c0b"/>
			<stop offset="1" stop-color="#000000"/>
		</linearGradient>
		<linearGradient id="g2" x2="1" gradientUnits="userSpaceOnUse" gradientTransform="matrix(-1.135,-118.779,132.928,-1.27,19.953,78.27)">
			<stop offset=".024" stop-color="#00fff4"/>
			<stop offset=".156" stop-color="#00fbf0"/>
			<stop offset=".28" stop-color="#00f0e6"/>
			<stop offset=".401" stop-color="#00ddd3"/>
			<stop offset=".519" stop-color="#00c2ba"/>
			<stop offset=".636" stop-color="#00a099"/>
			<stop offset=".752" stop-color="#007671"/>
			<stop offset=".867" stop-color="#004441"/>
			<stop offset=".979" stop-color="#000c0b"/>
			<stop offset="1" stop-color="#000000"/>
		</linearGradient>
		<linearGradient id="g3" x2="1" gradientUnits="userSpaceOnUse" gradientTransform="matrix(-1.135,-118.78,132.736,-1.268,39.347,78.086)">
			<stop offset=".024" stop-color="#00fff4"/>
			<stop offset=".156" stop-color="#00fbf0"/>
			<stop offset=".28" stop-color="#00f0e6"/>
			<stop offset=".401" stop-color="#00ddd3"/>
			<stop offset=".519" stop-color="#00c2ba"/>
			<stop offset=".636" stop-color="#00a099"/>
			<stop offset=".752" stop-color="#007671"/>
			<stop offset=".867" stop-color="#004441"/>
			<stop offset=".979" stop-color="#000c0b"/>
			<stop offset="1" stop-color="#000000"/>
		</linearGradient>
		<linearGradient id="g4" x2="1" gradientUnits="userSpaceOnUse" gradientTransform="matrix(-1.135,-118.78,132.736,-1.268,4.383,78.42)">
			<stop offset=".024" stop-color="#00fff4"/>
			<stop offset=".156" stop-color="#00fbf0"/>
			<stop offset=".28" stop-color="#00f0e6"/>
			<stop offset=".401" stop-color="#00ddd3"/>
			<stop offset=".519" stop-color="#00c2ba"/>
			<stop offset=".636" stop-color="#00a099"/>
			<stop offset=".752" stop-color="#007671"/>
			<stop offset=".867" stop-color="#004441"/>
			<stop offset=".979" stop-color="#000c0b"/>
			<stop offset="1" stop-color="#000000"/>
		</linearGradient>
		<linearGradient id="g5" x2="1" gradientUnits="userSpaceOnUse" gradientTransform="matrix(-1.135,-118.779,133.452,-1.275,9.72,78.368)">
			<stop offset=".024" stop-color="#00fff4"/>
			<stop offset=".156" stop-color="#00fbf0"/>
			<stop offset=".28" stop-color="#00f0e6"/>
			<stop offset=".401" stop-color="#00ddd3"/>
			<stop offset=".519" stop-color="#00c2ba"/>
			<stop offset=".636" stop-color="#00a099"/>
			<stop offset=".752" stop-color="#007671"/>
			<stop offset=".867" stop-color="#004441"/>
			<stop offset=".979" stop-color="#000c0b"/>
			<stop offset="1" stop-color="#000000"/>
		</linearGradient>
		<linearGradient id="g6" x2="1" gradientUnits="userSpaceOnUse" gradientTransform="matrix(-1.135,-118.779,132.167,-1.263,18.251,78.287)">
			<stop offset=".024" stop-color="#00fff4"/>
			<stop offset=".156" stop-color="#00fbf0"/>
			<stop offset=".28" stop-color="#00f0e6"/>
			<stop offset=".401" stop-color="#00ddd3"/>
			<stop offset=".519" stop-color="#00c2ba"/>
			<stop offset=".636" stop-color="#00a099"/>
			<stop offset=".752" stop-color="#007671"/>
			<stop offset=".867" stop-color="#004441"/>
			<stop offset=".979" stop-color="#000c0b"/>
			<stop offset="1" stop-color="#000000"/>
		</linearGradient>
		<linearGradient id="g7" x2="1" gradientUnits="userSpaceOnUse" gradientTransform="matrix(-1.135,-118.778,131.974,-1.261,33.731,78.139)">
			<stop offset=".024" stop-color="#00fff4"/>
			<stop offset=".156" stop-color="#00fbf0"/>
			<stop offset=".28" stop-color="#00f0e6"/>
			<stop offset=".401" stop-color="#00ddd3"/>
			<stop offset=".519" stop-color="#00c2ba"/>
			<stop offset=".636" stop-color="#00a099"/>
			<stop offset=".752" stop-color="#007671"/>
			<stop offset=".867" stop-color="#004441"/>
			<stop offset=".979" stop-color="#000c0b"/>
			<stop offset="1" stop-color="#000000"/>
		</linearGradient>
		<linearGradient id="g8" x2="1" gradientUnits="userSpaceOnUse" gradientTransform="matrix(-1.135,-118.78,136.498,-1.304,10.668,78.36)">
			<stop offset=".024" stop-color="#00fff4"/>
			<stop offset=".156" stop-color="#00fbf0"/>
			<stop offset=".28" stop-color="#00f0e6"/>
			<stop offset=".401" stop-color="#00ddd3"/>
			<stop offset=".519" stop-color="#00c2ba"/>
			<stop offset=".636" stop-color="#00a099"/>
			<stop offset=".752" stop-color="#007671"/>
			<stop offset=".867" stop-color="#004441"/>
			<stop offset=".979" stop-color="#000c0b"/>
			<stop offset="1" stop-color="#000000"/>
		</linearGradient>
		<linearGradient id="g9" x2="1" gradientUnits="userSpaceOnUse" gradientTransform="matrix(-1.135,-118.78,136.498,-1.304,31.039,78.165)">
			<stop offset=".024" stop-color="#00fff4"/>
			<stop offset=".156" stop-color="#00fbf0"/>
			<stop offset=".28" stop-color="#00f0e6"/>
			<stop offset=".401" stop-color="#00ddd3"/>
			<stop offset=".519" stop-color="#00c2ba"/>
			<stop offset=".636" stop-color="#00a099"/>
			<stop offset=".752" stop-color="#007671"/>
			<stop offset=".867" stop-color="#004441"/>
			<stop offset=".979" stop-color="#000c0b"/>
			<stop offset="1" stop-color="#000000"/>
		</linearGradient>
		<linearGradient id="g10" x2="1" gradientUnits="userSpaceOnUse" gradientTransform="matrix(-1.135,-118.78,136.074,-1.3,29.977,78.175)">
			<stop offset=".024" stop-color="#00fff4"/>
			<stop offset=".156" stop-color="#00fbf0"/>
			<stop offset=".28" stop-color="#00f0e6"/>
			<stop offset=".401" stop-color="#00ddd3"/>
			<stop offset=".519" stop-color="#00c2ba"/>
			<stop offset=".636" stop-color="#00a099"/>
			<stop offset=".752" stop-color="#007671"/>
			<stop offset=".867" stop-color="#004441"/>
			<stop offset=".979" stop-color="#000c0b"/>
			<stop offset="1" stop-color="#000000"/>
		</linearGradient>
		<linearGradient id="g11" x2="1" gradientUnits="userSpaceOnUse" gradientTransform="matrix(-1.135,-118.778,136.501,-1.304,36.975,78.108)">
			<stop offset=".024" stop-color="#00fff4"/>
			<stop offset=".156" stop-color="#00fbf0"/>
			<stop offset=".28" stop-color="#00f0e6"/>
			<stop offset=".401" stop-color="#00ddd3"/>
			<stop offset=".519" stop-color="#00c2ba"/>
			<stop offset=".636" stop-color="#00a099"/>
			<stop offset=".752" stop-color="#007671"/>
			<stop offset=".867" stop-color="#004441"/>
			<stop offset=".979" stop-color="#000c0b"/>
			<stop offset="1" stop-color="#000000"/>
		</linearGradient>
		<linearGradient id="g12" x2="1" gradientUnits="userSpaceOnUse" gradientTransform="matrix(-1.135,-118.778,136.071,-1.3,25.7,78.215)">
			<stop offset=".024" stop-color="#00fff4"/>
			<stop offset=".156" stop-color="#00fbf0"/>
			<stop offset=".28" stop-color="#00f0e6"/>
			<stop offset=".401" stop-color="#00ddd3"/>
			<stop offset=".519" stop-color="#00c2ba"/>
			<stop offset=".636" stop-color="#00a099"/>
			<stop offset=".752" stop-color="#007671"/>
			<stop offset=".867" stop-color="#004441"/>
			<stop offset=".979" stop-color="#000c0b"/>
			<stop offset="1" stop-color="#000000"/>
		</linearGradient>
		<linearGradient id="g13" x2="1" gradientUnits="userSpaceOnUse" gradientTransform="matrix(-1.135,-118.778,135.781,-1.297,13.217,78.335)">
			<stop offset=".024" stop-color="#00fff4"/>
			<stop offset=".156" stop-color="#00fbf0"/>
			<stop offset=".28" stop-color="#00f0e6"/>
			<stop offset=".401" stop-color="#00ddd3"/>
			<stop offset=".519" stop-color="#00c2ba"/>
			<stop offset=".636" stop-color="#00a099"/>
			<stop offset=".752" stop-color="#007671"/>
			<stop offset=".867" stop-color="#004441"/>
			<stop offset=".979" stop-color="#000c0b"/>
			<stop offset="1" stop-color="#000000"/>
		</linearGradient>
		<linearGradient id="g14" x2="1" gradientUnits="userSpaceOnUse" gradientTransform="matrix(-1.135,-118.778,136.75,-1.306,33.505,78.141)">
			<stop offset=".024" stop-color="#00fff4"/>
			<stop offset=".156" stop-color="#00fbf0"/>
			<stop offset=".28" stop-color="#00f0e6"/>
			<stop offset=".401" stop-color="#00ddd3"/>
			<stop offset=".519" stop-color="#00c2ba"/>
			<stop offset=".636" stop-color="#00a099"/>
			<stop offset=".752" stop-color="#007671"/>
			<stop offset=".867" stop-color="#004441"/>
			<stop offset=".979" stop-color="#000c0b"/>
			<stop offset="1" stop-color="#000000"/>
		</linearGradient>
		<linearGradient id="g15" x2="1" gradientUnits="userSpaceOnUse" gradientTransform="matrix(-1.135,-118.778,136.755,-1.307,28.493,78.189)">
			<stop offset=".024" stop-color="#00fff4"/>
			<stop offset=".156" stop-color="#00fbf0"/>
			<stop offset=".28" stop-color="#00f0e6"/>
			<stop offset=".401" stop-color="#00ddd3"/>
			<stop offset=".519" stop-color="#00c2ba"/>
			<stop offset=".636" stop-color="#00a099"/>
			<stop offset=".752" stop-color="#007671"/>
			<stop offset=".867" stop-color="#004441"/>
			<stop offset=".979" stop-color="#000c0b"/>
			<stop offset="1" stop-color="#000000"/>
		</linearGradient>
		<linearGradient id="g16" x2="1" gradientUnits="userSpaceOnUse" gradientTransform="matrix(-1.135,-118.778,136.755,-1.307,23.365,78.238)">
			<stop offset=".024" stop-color="#00fff4"/>
			<stop offset=".156" stop-color="#00fbf0"/>
			<stop offset=".28" stop-color="#00f0e6"/>
			<stop offset=".401" stop-color="#00ddd3"/>
			<stop offset=".519" stop-color="#00c2ba"/>
			<stop offset=".636" stop-color="#00a099"/>
			<stop offset=".752" stop-color="#007671"/>
			<stop offset=".867" stop-color="#004441"/>
			<stop offset=".979" stop-color="#000c0b"/>
			<stop offset="1" stop-color="#000000"/>
		</linearGradient>
		<linearGradient id="g17" x2="1" gradientUnits="userSpaceOnUse" gradientTransform="matrix(-1.135,-118.777,136.672,-1.306,2.352,78.438)">
			<stop offset=".024" stop-color="#00fff4"/>
			<stop offset=".156" stop-color="#00fbf0"/>
			<stop offset=".28" stop-color="#00f0e6"/>
			<stop offset=".401" stop-color="#00ddd3"/>
			<stop offset=".519" stop-color="#00c2ba"/>
			<stop offset=".636" stop-color="#00a099"/>
			<stop offset=".752" stop-color="#007671"/>
			<stop offset=".867" stop-color="#004441"/>
			<stop offset=".979" stop-color="#000c0b"/>
			<stop offset="1" stop-color="#000000"/>
		</linearGradient>
		<linearGradient id="g18" x2="1" gradientUnits="userSpaceOnUse" gradientTransform="matrix(-1.135,-118.782,135.564,-1.295,6.069,78.405)">
			<stop offset=".024" stop-color="#00fff4"/>
			<stop offset=".156" stop-color="#00fbf0"/>
			<stop offset=".28" stop-color="#00f0e6"/>
			<stop offset=".401" stop-color="#00ddd3"/>
			<stop offset=".519" stop-color="#00c2ba"/>
			<stop offset=".636" stop-color="#00a099"/>
			<stop offset=".752" stop-color="#007671"/>
			<stop offset=".867" stop-color="#004441"/>
			<stop offset=".979" stop-color="#000c0b"/>
			<stop offset="1" stop-color="#000000"/>
		</linearGradient>
		<linearGradient id="g19" x2="1" gradientUnits="userSpaceOnUse" gradientTransform="matrix(-1.135,-118.782,136.678,-1.306,42.678,78.055)">
			<stop offset=".024" stop-color="#00fff4"/>
			<stop offset=".156" stop-color="#00fbf0"/>
			<stop offset=".28" stop-color="#00f0e6"/>
			<stop offset=".401" stop-color="#00ddd3"/>
			<stop offset=".519" stop-color="#00c2ba"/>
			<stop offset=".636" stop-color="#00a099"/>
			<stop offset=".752" stop-color="#007671"/>
			<stop offset=".867" stop-color="#004441"/>
			<stop offset=".979" stop-color="#000c0b"/>
			<stop offset="1" stop-color="#000000"/>
		</linearGradient>
		<linearGradient id="g20" x2="1" gradientUnits="userSpaceOnUse" gradientTransform="matrix(-1.135,-118.777,137.638,-1.315,36.518,78.112)">
			<stop offset=".024" stop-color="#00fff4"/>
			<stop offset=".156" stop-color="#00fbf0"/>
			<stop offset=".28" stop-color="#00f0e6"/>
			<stop offset=".401" stop-color="#00ddd3"/>
			<stop offset=".519" stop-color="#00c2ba"/>
			<stop offset=".636" stop-color="#00a099"/>
			<stop offset=".752" stop-color="#007671"/>
			<stop offset=".867" stop-color="#004441"/>
			<stop offset=".979" stop-color="#000c0b"/>
			<stop offset="1" stop-color="#000000"/>
		</linearGradient>
		<linearGradient id="g21" x2="1" gradientUnits="userSpaceOnUse" gradientTransform="matrix(-1.135,-118.777,135.558,-1.295,3.094,78.431)">
			<stop offset=".024" stop-color="#00fff4"/>
			<stop offset=".156" stop-color="#00fbf0"/>
			<stop offset=".28" stop-color="#00f0e6"/>
			<stop offset=".401" stop-color="#00ddd3"/>
			<stop offset=".519" stop-color="#00c2ba"/>
			<stop offset=".636" stop-color="#00a099"/>
			<stop offset=".752" stop-color="#007671"/>
			<stop offset=".867" stop-color="#004441"/>
			<stop offset=".979" stop-color="#000c0b"/>
			<stop offset="1" stop-color="#000000"/>
		</linearGradient>
		<linearGradient id="g22" x2="1" gradientUnits="userSpaceOnUse" gradientTransform="matrix(-1.135,-118.782,136.678,-1.306,24.936,78.225)">
			<stop offset=".024" stop-color="#00fff4"/>
			<stop offset=".156" stop-color="#00fbf0"/>
			<stop offset=".28" stop-color="#00f0e6"/>
			<stop offset=".401" stop-color="#00ddd3"/>
			<stop offset=".519" stop-color="#00c2ba"/>
			<stop offset=".636" stop-color="#00a099"/>
			<stop offset=".752" stop-color="#007671"/>
			<stop offset=".867" stop-color="#004441"/>
			<stop offset=".979" stop-color="#000c0b"/>
			<stop offset="1" stop-color="#000000"/>
		</linearGradient>
		<linearGradient id="g23" x2="1" gradientUnits="userSpaceOnUse" gradientTransform="matrix(-1.135,-118.777,136.672,-1.306,37.217,78.104)">
			<stop offset=".024" stop-color="#00fff4"/>
			<stop offset=".156" stop-color="#00fbf0"/>
			<stop offset=".28" stop-color="#00f0e6"/>
			<stop offset=".401" stop-color="#00ddd3"/>
			<stop offset=".519" stop-color="#00c2ba"/>
			<stop offset=".636" stop-color="#00a099"/>
			<stop offset=".752" stop-color="#007671"/>
			<stop offset=".867" stop-color="#004441"/>
			<stop offset=".979" stop-color="#000c0b"/>
			<stop offset="1" stop-color="#000000"/>
		</linearGradient>
		<linearGradient id="g24" x2="1" gradientUnits="userSpaceOnUse" gradientTransform="matrix(-1.135,-118.779,136.778,-1.307,13.758,78.33)">
			<stop offset=".024" stop-color="#00fff4"/>
			<stop offset=".156" stop-color="#00fbf0"/>
			<stop offset=".28" stop-color="#00f0e6"/>
			<stop offset=".401" stop-color="#00ddd3"/>
			<stop offset=".519" stop-color="#00c2ba"/>
			<stop offset=".636" stop-color="#00a099"/>
			<stop offset=".752" stop-color="#007671"/>
			<stop offset=".867" stop-color="#004441"/>
			<stop offset=".979" stop-color="#000c0b"/>
			<stop offset="1" stop-color="#000000"/>
		</linearGradient>
		<linearGradient id="g25" x2="1" gradientUnits="userSpaceOnUse" gradientTransform="matrix(-1.135,-118.779,136.778,-1.307,16.139,78.307)">
			<stop offset=".024" stop-color="#00fff4"/>
			<stop offset=".156" stop-color="#00fbf0"/>
			<stop offset=".28" stop-color="#00f0e6"/>
			<stop offset=".401" stop-color="#00ddd3"/>
			<stop offset=".519" stop-color="#00c2ba"/>
			<stop offset=".636" stop-color="#00a099"/>
			<stop offset=".752" stop-color="#007671"/>
			<stop offset=".867" stop-color="#004441"/>
			<stop offset=".979" stop-color="#000c0b"/>
			<stop offset="1" stop-color="#000000"/>
		</linearGradient>
		<linearGradient id="g26" x2="1" gradientUnits="userSpaceOnUse" gradientTransform="matrix(-1.135,-118.779,136.778,-1.307,25.415,78.219)">
			<stop offset=".024" stop-color="#00fff4"/>
			<stop offset=".156" stop-color="#00fbf0"/>
			<stop offset=".28" stop-color="#00f0e6"/>
			<stop offset=".401" stop-color="#00ddd3"/>
			<stop offset=".519" stop-color="#00c2ba"/>
			<stop offset=".636" stop-color="#00a099"/>
			<stop offset=".752" stop-color="#007671"/>
			<stop offset=".867" stop-color="#004441"/>
			<stop offset=".979" stop-color="#000c0b"/>
			<stop offset="1" stop-color="#000000"/>
		</linearGradient>
		<linearGradient id="g27" x2="1" gradientUnits="userSpaceOnUse" gradientTransform="matrix(-1.135,-118.779,136.777,-1.307,13.536,78.332)">
			<stop offset=".024" stop-color="#00fff4"/>
			<stop offset=".156" stop-color="#00fbf0"/>
			<stop offset=".28" stop-color="#00f0e6"/>
			<stop offset=".401" stop-color="#00ddd3"/>
			<stop offset=".519" stop-color="#00c2ba"/>
			<stop offset=".636" stop-color="#00a099"/>
			<stop offset=".752" stop-color="#007671"/>
			<stop offset=".867" stop-color="#004441"/>
			<stop offset=".979" stop-color="#000c0b"/>
			<stop offset="1" stop-color="#000000"/>
		</linearGradient>
		<linearGradient id="g28" x2="1" gradientUnits="userSpaceOnUse" gradientTransform="matrix(-1.135,-118.779,136.777,-1.307,22.813,78.243)">
			<stop offset=".024" stop-color="#00fff4"/>
			<stop offset=".156" stop-color="#00fbf0"/>
			<stop offset=".28" stop-color="#00f0e6"/>
			<stop offset=".401" stop-color="#00ddd3"/>
			<stop offset=".519" stop-color="#00c2ba"/>
			<stop offset=".636" stop-color="#00a099"/>
			<stop offset=".752" stop-color="#007671"/>
			<stop offset=".867" stop-color="#004441"/>
			<stop offset=".979" stop-color="#000c0b"/>
			<stop offset="1" stop-color="#000000"/>
		</linearGradient>
		<linearGradient id="g29" x2="1" gradientUnits="userSpaceOnUse" gradientTransform="matrix(-1.135,-118.779,136.163,-1.301,31.168,78.163)">
			<stop offset=".024" stop-color="#00fff4"/>
			<stop offset=".156" stop-color="#00fbf0"/>
			<stop offset=".28" stop-color="#00f0e6"/>
			<stop offset=".401" stop-color="#00ddd3"/>
			<stop offset=".519" stop-color="#00c2ba"/>
			<stop offset=".636" stop-color="#00a099"/>
			<stop offset=".752" stop-color="#007671"/>
			<stop offset=".867" stop-color="#004441"/>
			<stop offset=".979" stop-color="#000c0b"/>
			<stop offset="1" stop-color="#000000"/>
		</linearGradient>
		<linearGradient id="g30" x2="1" gradientUnits="userSpaceOnUse" gradientTransform="matrix(-1.135,-118.779,136.156,-1.301,33.92,78.137)">
			<stop offset=".024" stop-color="#00fff4"/>
			<stop offset=".156" stop-color="#00fbf0"/>
			<stop offset=".28" stop-color="#00f0e6"/>
			<stop offset=".401" stop-color="#00ddd3"/>
			<stop offset=".519" stop-color="#00c2ba"/>
			<stop offset=".636" stop-color="#00a099"/>
			<stop offset=".752" stop-color="#007671"/>
			<stop offset=".867" stop-color="#004441"/>
			<stop offset=".979" stop-color="#000c0b"/>
			<stop offset="1" stop-color="#000000"/>
		</linearGradient>
		<linearGradient id="g31" x2="1" gradientUnits="userSpaceOnUse" gradientTransform="matrix(-1.135,-118.779,132.167,-1.263,28.429,78.19)">
			<stop offset=".024" stop-color="#00fff4"/>
			<stop offset=".156" stop-color="#00fbf0"/>
			<stop offset=".28" stop-color="#00f0e6"/>
			<stop offset=".401" stop-color="#00ddd3"/>
			<stop offset=".519" stop-color="#00c2ba"/>
			<stop offset=".636" stop-color="#00a099"/>
			<stop offset=".752" stop-color="#007671"/>
			<stop offset=".867" stop-color="#004441"/>
			<stop offset=".979" stop-color="#000c0b"/>
			<stop offset="1" stop-color="#000000"/>
		</linearGradient>
		<linearGradient id="g32" x2="1" gradientUnits="userSpaceOnUse" gradientTransform="matrix(-1.135,-118.779,133.45,-1.275,30.912,78.166)">
			<stop offset=".024" stop-color="#00fff4"/>
			<stop offset=".156" stop-color="#00fbf0"/>
			<stop offset=".28" stop-color="#00f0e6"/>
			<stop offset=".401" stop-color="#00ddd3"/>
			<stop offset=".519" stop-color="#00c2ba"/>
			<stop offset=".636" stop-color="#00a099"/>
			<stop offset=".752" stop-color="#007671"/>
			<stop offset=".867" stop-color="#004441"/>
			<stop offset=".979" stop-color="#000c0b"/>
			<stop offset="1" stop-color="#000000"/>
		</linearGradient>
		<linearGradient id="g33" x2="1" gradientUnits="userSpaceOnUse" gradientTransform="matrix(-1.135,-118.779,133.452,-1.275,7.339,78.391)">
			<stop offset=".024" stop-color="#00fff4"/>
			<stop offset=".156" stop-color="#00fbf0"/>
			<stop offset=".28" stop-color="#00f0e6"/>
			<stop offset=".401" stop-color="#00ddd3"/>
			<stop offset=".519" stop-color="#00c2ba"/>
			<stop offset=".636" stop-color="#00a099"/>
			<stop offset=".752" stop-color="#007671"/>
			<stop offset=".867" stop-color="#004441"/>
			<stop offset=".979" stop-color="#000c0b"/>
			<stop offset="1" stop-color="#000000"/>
		</linearGradient>
		<linearGradient id="g34" x2="1" gradientUnits="userSpaceOnUse" gradientTransform="matrix(-1.135,-118.779,134.202,-1.282,38.153,78.097)">
			<stop offset=".024" stop-color="#00fff4"/>
			<stop offset=".156" stop-color="#00fbf0"/>
			<stop offset=".28" stop-color="#00f0e6"/>
			<stop offset=".401" stop-color="#00ddd3"/>
			<stop offset=".519" stop-color="#00c2ba"/>
			<stop offset=".636" stop-color="#00a099"/>
			<stop offset=".752" stop-color="#007671"/>
			<stop offset=".867" stop-color="#004441"/>
			<stop offset=".979" stop-color="#000c0b"/>
			<stop offset="1" stop-color="#000000"/>
		</linearGradient>
	</defs>
	<style>
		.s0 { fill: url(#g1) } 
		.s1 { fill: url(#g2) } 
		.s2 { fill: url(#g3) } 
		.s3 { fill: url(#g4) } 
		.s4 { fill: url(#g5) } 
		.s5 { fill: url(#g6) } 
		.s6 { fill: url(#g7) } 
		.s7 { fill: url(#g8) } 
		.s8 { fill: url(#g9) } 
		.s9 { fill: url(#g10) } 
		.s10 { fill: url(#g11) } 
		.s11 { fill: url(#g12) } 
		.s12 { fill: url(#g13) } 
		.s13 { fill: url(#g14) } 
		.s14 { fill: url(#g15) } 
		.s15 { fill: url(#g16) } 
		.s16 { fill: url(#g17) } 
		.s17 { fill: url(#g18) } 
		.s18 { fill: url(#g19) } 
		.s19 { fill: url(#g20) } 
		.s20 { fill: url(#g21) } 
		.s21 { fill: url(#g22) } 
		.s22 { fill: url(#g23) } 
		.s23 { fill: url(#g24) } 
		.s24 { fill: url(#g25) } 
		.s25 { fill: url(#g26) } 
		.s26 { fill: url(#g27) } 
		.s27 { fill: url(#g28) } 
		.s28 { fill: url(#g29) } 
		.s29 { fill: url(#g30) } 
		.s30 { fill: url(#g31) } 
		.s31 { fill: url(#g32) } 
		.s32 { fill: url(#g33) } 
		.s33 { fill: url(#g34) } 
		.s34 { fill: #ffffff } 
	</style>
	<g id="Layer">
		<g id="Layer">
			<path id="Layer" fill-rule="evenodd" class="s0" d="m23.8 20.2h-5.9c-0.2 0-0.5-0.1-0.6-0.3l-3-5.2c-0.1-0.2-0.1-0.4 0-0.6l3-5.2c0.1-0.2 0.4-0.3 0.6-0.3h5.9c0.3 0 0.5 0.1 0.6 0.3l3 5.2c0.1 0.2 0.1 0.4 0 0.6l-3 5.2c-0.1 0.2-0.3 0.3-0.6 0.3zm-5.5-1.3h5.1l2.6-4.5-2.6-4.5h-5.1l-2.6 4.5z"/>
		</g>
		<g id="Layer">
			<path id="Layer" fill-rule="evenodd" class="s1" d="m20.8 6.8h-3.1c-0.3 0-0.5-0.2-0.6-0.4l-1.6-2.7c-0.1-0.2-0.1-0.4 0-0.7l1.6-2.7c0.1-0.2 0.3-0.3 0.6-0.3h3.1c0.2 0 0.5 0.1 0.6 0.3l1.5 2.8c0.2 0.2 0.2 0.4 0 0.6l-1.5 2.7c-0.1 0.2-0.4 0.4-0.6 0.4zm-2.7-1.4h2.3l1.2-2-1.2-2h-2.3l-1.2 2z"/>
		</g>
		<g id="Layer">
			<path id="Layer" fill-rule="evenodd" class="s2" d="m40.4 28.3h-3.1c-0.3 0-0.5-0.2-0.6-0.4l-1.6-2.7c-0.1-0.2-0.1-0.5 0-0.7l1.6-2.7c0.1-0.2 0.3-0.3 0.6-0.3h3.1c0.2 0 0.5 0.1 0.6 0.3l1.6 2.7c0.1 0.2 0.1 0.5 0 0.7l-1.6 2.7c-0.1 0.2-0.4 0.4-0.6 0.4zm-2.7-1.4h2.3l1.2-2-1.2-2.1h-2.3l-1.2 2.1z"/>
		</g>
		<g id="Layer">
			<path id="Layer" fill-rule="evenodd" class="s3" d="m5.4 21.4l-3.2 0.1c-0.2 0-0.4-0.2-0.5-0.4l-1.6-2.7c-0.1-0.2-0.1-0.5 0-0.7l1.6-2.7c0.1-0.2 0.3-0.3 0.5-0.3h3.2c0.2 0 0.4 0.1 0.6 0.3l1.5 2.7c0.1 0.2 0.1 0.5 0 0.7l-1.5 2.7c-0.2 0.2-0.4 0.4-0.6 0.4zm-2.8-1.4h2.4l1.1-2-1.1-2.1h-2.4l-1.1 2.1z"/>
		</g>
		<g id="Layer">
			<path id="Layer" fill-rule="evenodd" class="s4" d="m10.9 13.4h-3.6c-0.3 0-0.5-0.1-0.6-0.3l-1.8-3.2c-0.2-0.2-0.2-0.4 0-0.6l1.8-3.2c0.1-0.2 0.3-0.3 0.6-0.3h3.6c0.2 0 0.4 0.1 0.6 0.3l1.8 3.2c0.1 0.2 0.1 0.4 0 0.6l-1.8 3.2c-0.2 0.2-0.4 0.3-0.6 0.3zm-3.3-1.3h2.9l1.4-2.5-1.4-2.4h-2.9l-1.4 2.4z"/>
		</g>
		<g id="Layer">
			<path id="Layer" fill-rule="evenodd" class="s5" d="m18.9 27.9l-2.4 0.1c-0.2 0-0.4-0.2-0.5-0.4l-1.3-2.1c-0.1-0.2-0.1-0.4 0-0.7l1.3-2c0.1-0.3 0.3-0.4 0.5-0.4h2.5c0.2 0 0.4 0.1 0.5 0.4l1.3 2c0.1 0.3 0.1 0.5 0 0.7l-1.3 2.1c-0.1 0.2-0.3 0.4-0.5 0.4zm-2.1-1.4h1.7l0.8-1.4-0.8-1.4h-1.7l-0.8 1.4z"/>
		</g>
		<g id="Layer">
			<path id="Layer" fill-rule="evenodd" class="s6" d="m33.9 36.3h-1.2q-0.1 0-0.2-0.2l-0.6-1q-0.1-0.2 0-0.3l0.6-1q0.1-0.2 0.2-0.2h1.2q0.2 0 0.3 0.2l0.6 1q0.1 0.1 0 0.3l-0.6 1q-0.1 0.2-0.3 0.2zm-1-0.7h0.8l0.4-0.7-0.4-0.6h-0.8l-0.4 0.6z"/>
		</g>
		<g id="Layer">
			<path id="Layer" class="s7" d="m11.3 14.3h-2.4l-1.2 2.1 1.2 2.1h2.4l1.2-2.1z"/>
		</g>
		<g id="Layer">
			<path id="Layer" class="s8" d="m31.8 28.7h-2.4l-1.2 2.1 1.2 2.1h2.4l1.2-2.1z"/>
		</g>
		<g id="Layer">
			<path id="Layer" class="s9" d="m30.3 10.1h-1.9l-0.9 1.6 0.9 1.6h1.8l1-1.6z"/>
		</g>
		<g id="Layer">
			<path id="Layer" class="s10" d="m37.5 30.8h-1.9l-0.9 1.6 0.9 1.5h1.9l0.9-1.5z"/>
		</g>
		<g id="Layer">
			<path id="Layer" class="s11" d="m25.9 0.3h-1.8l-0.9 1.6 0.9 1.6h1.8l0.9-1.6z"/>
		</g>
		<g id="Layer">
			<path id="Layer" class="s12" d="m13.4 20.7h-1.5l-0.7 1.3 0.7 1.3h1.5l0.8-1.3z"/>
		</g>
		<g id="Layer">
			<path id="Layer" class="s13" d="m33.7 21.3h-1.5l-0.7 1.3 0.7 1.3h1.5l0.8-1.3z"/>
		</g>
		<g id="Layer">
			<path id="Layer" class="s14" d="m28.7 18.2h-1.5l-0.8 1.3 0.8 1.3h1.5l0.7-1.3z"/>
		</g>
		<g id="Layer">
			<path id="Layer" class="s15" d="m23.6 21.3h-1.5l-0.8 1.3 0.8 1.3h1.5l0.7-1.3z"/>
		</g>
		<g id="Layer">
			<path id="Layer" class="s16" d="m2.2 26.4h-0.7l-0.3 0.6 0.3 0.6h0.7l0.4-0.6z"/>
		</g>
		<g id="Layer">
			<path id="Layer" class="s17" d="m5.8 12.8h-0.7l-0.3 0.6 0.3 0.6h0.7l0.4-0.6z"/>
		</g>
		<g id="Layer">
			<path id="Layer" class="s18" d="m42.5 20.1h-0.7l-0.4 0.6 0.4 0.6h0.7l0.3-0.6z"/>
		</g>
		<g id="Layer">
			<path id="Layer" class="s19" d="m36.5 35.3h-0.7l-0.4 0.6 0.4 0.7h0.7l0.3-0.7z"/>
		</g>
		<g id="Layer">
			<path id="Layer" class="s20" d="m2.9 22h-0.7l-0.3 0.6 0.3 0.6h0.7l0.4-0.6z"/>
		</g>
		<g id="Layer">
			<path id="Layer" class="s21" d="m24.6 6.7h-0.7l-0.3 0.6 0.3 0.6h0.7l0.4-0.6z"/>
		</g>
		<g id="Layer">
			<path id="Layer" class="s22" d="m36.9 6.4h-0.7l-0.4 0.6 0.4 0.6h0.7l0.3-0.6z"/>
		</g>
		<g id="Layer">
			<path id="Layer" class="s23" d="m13.6 3.4h-1.1l-0.6 0.9 0.6 1h1.1l0.6-1z"/>
		</g>
		<g id="Layer">
			<path id="Layer" class="s24" d="m16 7.4h-1.1l-0.5 0.9 0.5 1h1.1l0.6-1z"/>
		</g>
		<g id="Layer">
			<path id="Layer" class="s25" d="m25.5 29.5h-1.1l-0.5 0.9 0.5 1h1.1l0.6-1z"/>
		</g>
		<g id="Layer">
			<path id="Layer" class="s26" d="m13.6 26.6h-1.1l-0.6 1 0.6 0.9h1.1l0.6-0.9z"/>
		</g>
		<g id="Layer">
			<path id="Layer" class="s27" d="m22.9 25.8h-1.1l-0.6 0.9 0.6 1h1.1l0.5-1z"/>
		</g>
		<g id="Layer">
			<path id="Layer" class="s28" d="m31.1 16.3h-1.1l-0.5 0.9 0.5 1h1.1l0.6-1z"/>
		</g>
		<g id="Layer">
			<path id="Layer" class="s29" d="m34 26.6h-1.1l-0.6 1 0.6 0.9h1.1l0.5-0.9z"/>
		</g>
		<g id="Layer">
			<path id="Layer" fill-rule="evenodd" class="s30" d="m29.1 27.9h-2.4c-0.2 0-0.5-0.1-0.6-0.3l-1.2-2.1c-0.1-0.2-0.1-0.5 0-0.7l1.2-2.1c0.1-0.2 0.4-0.3 0.6-0.3h2.4c0.3 0 0.5 0.1 0.6 0.3l1.2 2.1c0.1 0.2 0.1 0.5 0 0.7l-1.2 2.1c-0.1 0.2-0.3 0.3-0.6 0.3zm-2-1.3h1.6l0.8-1.4-0.8-1.4h-1.6l-0.8 1.4z"/>
		</g>
		<g id="Layer">
			<path id="Layer" fill-rule="evenodd" class="s31" d="m32 9.2h-3.6c-0.2 0-0.5-0.1-0.6-0.3l-1.8-3.1c-0.1-0.2-0.1-0.5 0-0.7l1.8-3.1c0.1-0.3 0.4-0.4 0.6-0.4h3.6c0.3 0 0.5 0.1 0.6 0.4l1.8 3.1c0.2 0.2 0.2 0.5 0 0.7l-1.8 3.1c-0.1 0.2-0.3 0.3-0.6 0.3zm-3.2-1.3h2.8l1.5-2.5-1.5-2.4h-2.8l-1.4 2.4z"/>
		</g>
		<g id="Layer">
			<path id="Layer" fill-rule="evenodd" class="s32" d="m8.6 29.5h-3.6c-0.2 0-0.4-0.1-0.6-0.3l-1.8-3.1c-0.1-0.2-0.1-0.5 0-0.7l1.8-3.1c0.2-0.2 0.4-0.4 0.6-0.4h3.7c0.2 0 0.4 0.2 0.5 0.4l1.9 3.1c0.1 0.2 0.1 0.5 0 0.7l-1.9 3.1c-0.1 0.2-0.3 0.3-0.6 0.3zm-3.2-1.3h2.9l1.4-2.5-1.4-2.4h-2.9l-1.4 2.4z"/>
		</g>
		<g id="Layer">
			<path id="Layer" fill-rule="evenodd" class="s33" d="m40.4 20h-5.7c-0.2 0-0.4-0.2-0.6-0.4l-2.8-4.9c-0.1-0.2-0.1-0.4 0-0.7l2.8-4.9c0.1-0.2 0.4-0.3 0.6-0.3h5.7c0.2 0 0.4 0.1 0.6 0.3l2.8 4.9c0.1 0.3 0.1 0.5 0 0.7l-2.8 4.9c-0.2 0.2-0.4 0.4-0.6 0.4zm-5.3-1.4h4.9l2.4-4.2-2.4-4.2h-4.9l-2.4 4.2z"/>
		</g>
	</g>
	<g id="Layer">
		<g id="Layer">
			<path id="Layer" class="s34" d="m59.7 16.1c-1.3 0.7-2.9 1-4.9 1-4.1 0-7-2.8-7-6.8 0-4.1 3-6.7 7-6.7 2 0 3.8 0.6 4.9 1.6l-1.6 1.7c-0.7-0.7-1.9-1.3-3.3-1.3-2.7 0-4.5 2.1-4.5 4.7 0 2.8 1.7 4.8 4.6 4.8q1.4 0 2.6-0.5v-3.3h-2.8v-1.9h5c0 0 0 6.7 0 6.7z"/>
			<path id="Layer" class="s34" d="m62.5 3.9h8.5v2h-6.2v3.3h5.9v1.9h-5.9v3.7h6.5v2h-8.8z"/>
			<path id="Layer" class="s34" d="m73.6 3.9h3l6 9.7h0.1v-9.7h2.3v12.9h-3l-6.1-10v10h-2.3z"/>
			<path id="Layer" class="s34" d="m87.8 3.9h2.3v12.9h-2.3z"/>
			<path id="Layer" class="s34" d="m103.2 12.1c0 3.1-2.2 5-5.2 5-2.9 0-5.2-1.9-5.2-5v-8.2h2.3v8.1c0 1.5 0.7 3.1 2.9 3.1 2.2 0 2.9-1.6 2.9-3.1v-8.1h2.3v8.2z"/>
			<path id="Layer" class="s34" d="m112.5 6.6c-0.5-0.6-1.5-1.1-2.4-1.1-1 0-2.3 0.5-2.3 1.8 0 1.1 1 1.5 2.5 2 1.7 0.5 3.8 1.2 3.8 3.7 0 2.8-2.2 4.1-4.7 4.1-1.7 0-3.4-0.6-4.5-1.8l1.7-1.5c0.6 0.8 1.8 1.4 2.8 1.4 1.1 0 2.3-0.5 2.3-1.9 0-1.4-1.3-1.7-2.9-2.3-1.6-0.4-3.3-1.2-3.3-3.6 0-2.6 2.4-3.8 4.7-3.8 1.3 0 2.8 0.4 3.8 1.4z"/>
		</g>
		<g id="Layer">
			<path id="Layer" class="s34" d="m60.7 24h5.7v1.4h-4.1v2.4h3.8v1.3h-3.8v3.7l-1.6-0.1z"/>
			<path id="Layer" class="s34" d="m67.8 24h5.8v1.4h-4.3v2.2h4.1v1.3h-4.1v2.5h4.5v1.3h-6z"/>
			<path id="Layer" class="s34" d="m75.3 24h5.8v1.4h-4.2v2.2h4v1.3h-4v2.5h4.4v1.3h-6z"/>
			<path id="Layer" fill-rule="evenodd" class="s34" d="m82.8 24h3.1c2.3 0 4.9 1.1 4.9 4.4 0 3-2.6 4.3-4.9 4.3h-3.1zm2.9 7.4c1.6 0 3.4-0.6 3.4-3 0-2.5-1.8-3-3.4-3h-1.3v6z"/>
			<path id="Layer" class="s34" d="m96.7 25.8c-0.3-0.4-1-0.7-1.6-0.7-0.7 0-1.5 0.3-1.5 1.2 0 0.8 0.6 1 1.6 1.3 1.1 0.4 2.6 0.9 2.6 2.6 0 1.8-1.5 2.8-3.2 2.8-1.1 0-2.3-0.5-3-1.3l1.1-1c0.4 0.6 1.2 1 1.9 1 0.7 0 1.6-0.4 1.6-1.3 0-0.9-0.9-1.2-2-1.6-1.1-0.3-2.2-0.8-2.2-2.4 0-1.8 1.6-2.6 3.2-2.6 0.8 0 1.8 0.3 2.5 0.9z"/>
		</g>
	</g>
</svg>